<mxfile host="65bd71144e" modified="2020-10-10T05:34:11.905Z" agent="5.0 (Macintosh; Intel Mac OS X 10_15_6) AppleWebKit/537.36 (KHTML, like Gecko) Code/1.49.1 Chrome/83.0.4103.122 Electron/9.2.1 Safari/537.36" etag="fFb07XsQ8FeqMzHG1689" version="13.6.5">
    <diagram id="rELO_ynSzaifTVoMeoe0" name="ページ1">
        <mxGraphModel dx="706" dy="464" grid="1" gridSize="10" guides="1" tooltips="1" connect="1" arrows="1" fold="1" page="1" pageScale="1" pageWidth="827" pageHeight="1169" math="0" shadow="0">
            <root>
                <mxCell id="0"/>
                <mxCell id="1" parent="0"/>
                <mxCell id="8" value="" style="edgeStyle=orthogonalEdgeStyle;shape=arrow;rounded=0;orthogonalLoop=1;jettySize=auto;html=1;entryX=-0.026;entryY=0.552;entryDx=0;entryDy=0;entryPerimeter=0;" parent="1" edge="1">
                    <mxGeometry relative="1" as="geometry">
                        <mxPoint x="243" y="155" as="sourcePoint"/>
                        <mxPoint x="508.05999999999995" y="156.96000000000004" as="targetPoint"/>
                    </mxGeometry>
                </mxCell>
                <mxCell id="2" value="users&lt;br&gt;&lt;br&gt;nickname : ニックネーム&lt;br&gt;email : メールアドレス&lt;br&gt;password : パスワード&lt;br&gt;first-name : 苗字&lt;br&gt;last-name : 名前&lt;br&gt;first-name-kana : 苗字（カナ）&lt;br&gt;last-name-kana : 名前（カナ）&lt;br&gt;birth-year : 生年月日（年）&lt;br&gt;birth-month : 生年月日（月）&lt;br&gt;birth-day : 生年月日（日）&amp;nbsp;" style="whiteSpace=wrap;html=1;" parent="1" vertex="1">
                    <mxGeometry x="20" y="30" width="220" height="250" as="geometry"/>
                </mxCell>
                <mxCell id="3" value="items&lt;br&gt;&lt;br&gt;image : 商品イメージ&lt;br&gt;price : 価格" style="whiteSpace=wrap;html=1;" parent="1" vertex="1">
                    <mxGeometry x="510" y="30" width="190" height="230" as="geometry"/>
                </mxCell>
            </root>
        </mxGraphModel>
    </diagram>
</mxfile>